<svg xmlns="http://www.w3.org/2000/svg" viewBox="0 0 512 512" style="width:32px;height:32px"><path d="M462.888 349.034c-13.507-19.272-25.114-36.952-34.468-57.808-9.353-20.855-16.596-45.096-20.836-77.943-3.117-24.146-8.739-45.548-16.883-64.235-6.102-14.006-13.652-26.448-22.612-37.23-13.42-16.165-30.036-28.434-49.03-36.426-6.734-2.858-13.718-5.16-20.99-6.955 0 0-.01-.009-.02-.009 3.243-6.399 5.104-13.661 5.094-21.278a47.02 47.02 0 00-3.712-18.36 47.157 47.157 0 00-17.066-20.721A46.937 46.937 0 00256.005 0a47.196 47.196 0 00-18.362 3.713 47.297 47.297 0 00-20.73 17.066 46.96 46.96 0 00-8.058 26.37 46.976 46.976 0 003.712 18.352 42.75 42.75 0 001.372 2.945s-.009.01-.019.01a142.46 142.46 0 00-14.572 4.413c-12.979 4.72-24.99 11.31-35.724 19.733-16.116 12.644-29.288 29.355-39.14 49.577-9.881 20.222-16.557 43.955-20.049 71.104-4.26 32.846-11.502 57.088-20.856 77.943-9.353 20.856-20.961 38.536-34.448 57.808-9.392 13.392-13.65 28.367-13.65 42.478 0 7.243 1.122 14.294 3.252 20.884 3.204 9.852 8.692 18.793 16.548 25.527 3.933 3.367 8.432 6.149 13.439 8.058 4.98 1.928 10.447 2.964 16.049 2.964h101.409a69.444 69.444 0 005.151 20.203c5.343 12.596 14.226 23.292 25.402 30.87 11.196 7.54 24.789 12.001 39.283 11.982a70.07 70.07 0 0027.312-5.516 70.55 70.55 0 0030.89-25.422 69.767 69.767 0 0011.607-32.117h101.408c7.492 0 14.668-1.861 20.874-5.161 4.682-2.456 8.807-5.679 12.347-9.392 5.286-5.602 9.286-12.269 11.962-19.54 2.705-7.291 4.106-15.196 4.106-23.34 0-14.112-4.259-29.086-13.632-42.478zM240.876 40.762a16.542 16.542 0 015.958-7.234c2.637-1.766 5.717-2.782 9.171-2.791 2.302.009 4.422.46 6.379 1.285a16.614 16.614 0 017.233 5.958c1.775 2.648 2.792 5.717 2.792 9.17 0 2.303-.461 4.423-1.286 6.38a16.487 16.487 0 01-5.957 7.233 16.174 16.174 0 01-9.161 2.792c-2.312 0-4.432-.461-6.389-1.286a16.483 16.483 0 01-7.233-5.957 16.307 16.307 0 01-2.792-9.162c0-2.312.46-4.432 1.285-6.388zm-129.257 263.04c10.62-23.637 18.745-51.236 23.292-86.587 2.812-21.775 7.79-40.367 14.553-55.87 5.075-11.636 11.156-21.536 18.073-29.853 10.427-12.519 22.745-21.603 37.364-27.801 14.602-6.168 31.61-9.401 51.112-9.401 17.297 0 32.684 2.551 46.124 7.444 10.101 3.694 19.148 8.672 27.264 15.061 12.183 9.554 22.399 22.284 30.515 38.861 8.106 16.577 14.006 37.04 17.171 61.558 4.547 35.351 12.673 62.95 23.292 86.587 7.071 15.771 15.196 29.71 23.887 43.054H87.752c8.692-13.343 16.798-27.281 23.867-43.053zm180.753 153.354a39.717 39.717 0 01-14.322 17.384c-6.321 4.268-13.823 6.724-22.036 6.724a39.232 39.232 0 01-15.368-3.098c-7.051-2.983-13.114-8.01-17.373-14.312-2.984-4.432-5.113-9.459-6.101-14.908h77.637a38.861 38.861 0 01-2.437 8.21zm151.656-54.229c-1.669 5.161-4.394 9.181-7.291 11.637-1.468 1.256-2.945 2.13-4.479 2.724a13.663 13.663 0 01-5.028.921H84.769c-2.504-.02-4.528-.566-6.542-1.602-1.496-.787-2.993-1.909-4.393-3.406-2.111-2.216-4.058-5.286-5.42-9.017-1.381-3.713-2.196-8.059-2.196-12.673.018-7.31 1.975-15.166 6.676-22.697h366.234c4.681 7.511 6.638 15.387 6.657 22.697-.001 4.087-.634 7.992-1.757 11.416z" fill="#4b4b4b"/></svg>