<svg viewBox="0 0 24 24" fill="none" xmlns="http://www.w3.org/2000/svg"><path d="M11.75 7.5a.75.75 0 000 1.5c1.322 0 2.712.759 3.41 1.756a.75.75 0 101.229-.86C15.413 8.502 13.567 7.5 11.75 7.5z" fill="#212121"/><path d="M9.5 4.5a2.5 2.5 0 015 0v.88a8.245 8.245 0 015.75 7.87.75.75 0 01-.75.75h-15a.75.75 0 01-.75-.75c0-3.679 2.422-6.793 5.75-7.858V4.5zm3.5 0a1 1 0 10-2 0v.563a8.332 8.332 0 012-.005V4.5zm-7.708 8h13.417c-.37-3.376-3.216-6-6.688-6-3.475 0-6.354 2.628-6.73 6zM4 15a2 2 0 100 4h16a2 2 0 100-4H4zm-.5 2a.5.5 0 01.5-.5h16a.5.5 0 010 1H4a.5.5 0 01-.5-.5z" fill="#212121"/></svg>