<svg xmlns="http://www.w3.org/2000/svg" viewBox="0 0 512 512" style="width:32px;height:32px"><path d="M512 292.408a64.496 64.496 0 00-18.944-45.726L273.612 27.248a64.67 64.67 0 00-42.434-18.857L67.942.093h.066A64.58 64.58 0 0018.934 18.95 64.663 64.663 0 000 64.676c0 1.064.033 2.162.088 3.282l8.298 163.225a64.765 64.765 0 0018.856 42.432l27.215 27.21c-6.52 30.448-9.61 58.108-9.61 82.178.034 33.06 5.313 59.644 14.544 79.006 4.643 9.681 10.318 17.627 17.288 23.444 6.914 5.818 15.464 9.395 24.432 9.374 8.517.011 16.859-3.162 24.213-8.572 7.409-5.433 14.072-13.073 20.196-22.863 8.803-14.181 14.576-32.335 18.659-52.839l82.518 82.518a64.485 64.485 0 0045.704 18.923 64.53 64.53 0 0045.704-18.923l154.96-154.949-11.92-11.919 11.931 11.908A64.522 64.522 0 00512 292.408zM143.798 397.822c-3.722 22.61-9.726 41.577-17.342 53.673-4.984 7.991-10.01 13.435-14.401 16.618-4.423 3.217-7.958 4.215-10.943 4.237-3.128-.032-6.256-1.064-10.044-4.171-5.63-4.599-11.908-14.268-16.387-28.735-4.51-14.445-7.364-33.499-7.354-56.439-.004-18.582 1.938-39.789 6.158-63.146l71.246 71.246c-.319 2.227-.571 4.554-.933 6.717zm325.429-83.55l-154.961 154.96c-6.08 6.059-13.906 9.034-21.864 9.056-7.969-.021-15.784-2.996-21.864-9.056L169.871 368.571c1.23-15.104 1.866-30.777 1.872-46.747-.011-38.636-3.282-78.511-8.474-113.042-2.332-15.466-5.066-29.766-8.073-42.544a39.715 39.715 0 006.065-4.961c15.366-15.366 15.366-40.26 0-55.638-15.367-15.367-40.261-15.367-55.628 0-15.366 15.378-15.366 40.271 0 55.638 7.727 7.727 17.858 11.548 27.973 11.504 9.039 38.931 15.679 95.557 15.658 149.044 0 8.649-.242 17.144-.598 25.542l-97.584-97.588a30.976 30.976 0 01-9.022-20.318L33.762 66.235l-.044-1.559c.011-8.21 3.238-16.058 9.066-21.886a30.905 30.905 0 0121.886-9.066l1.493.044 163.302 8.309a30.875 30.875 0 0120.306 9.011l219.456 219.455c6.058 6.059 9.033 13.874 9.054 21.864-.022 7.958-2.98 15.772-9.05 21.875l-.004-.01z" fill="#4b4b4b"/></svg>